<svg xmlns="http://www.w3.org/2000/svg" viewBox="0 0 960 420" role="img" aria-label="PrismGuard prompt injection firewall for production LLM applications">
  <rect width="960" height="420" rx="18" fill="#0f172a"/>
  <rect x="1" y="1" width="958" height="418" rx="17" fill="none" stroke="#334155" stroke-width="1"/>

  <text x="480" y="58" text-anchor="middle" fill="#38bdf8" font-family="Arial, Helvetica, sans-serif" font-size="42" font-weight="700">PrismGuard</text>
  <text x="480" y="88" text-anchor="middle" fill="#e2e8f0" font-family="Arial, Helvetica, sans-serif" font-size="20" font-weight="600">Prompt Injection Firewall</text>
  <text x="480" y="112" text-anchor="middle" fill="#94a3b8" font-family="Arial, Helvetica, sans-serif" font-size="15">for Production LLM Applications</text>

  <rect x="420" y="140" width="120" height="40" rx="10" fill="#334155" stroke="#64748b"/>
  <text x="480" y="165" text-anchor="middle" fill="#f8fafc" font-family="Arial, Helvetica, sans-serif" font-size="15" font-weight="600">User</text>

  <line x1="480" y1="180" x2="480" y2="200" stroke="#94a3b8" stroke-width="2"/>
  <polygon points="475,200 485,200 480,208" fill="#94a3b8"/>

  <rect x="355" y="212" width="250" height="52" rx="12" fill="#2563eb" stroke="#60a5fa" stroke-width="2"/>
  <text x="480" y="244" text-anchor="middle" fill="#ffffff" font-family="Arial, Helvetica, sans-serif" font-size="20" font-weight="700">PrismGuard</text>

  <line x1="480" y1="264" x2="480" y2="276" stroke="#94a3b8" stroke-width="2"/>
  <line x1="320" y1="276" x2="640" y2="276" stroke="#94a3b8" stroke-width="2"/>
  <line x1="320" y1="276" x2="320" y2="288" stroke="#94a3b8" stroke-width="2"/>
  <line x1="480" y1="276" x2="480" y2="288" stroke="#94a3b8" stroke-width="2"/>
  <line x1="640" y1="276" x2="640" y2="288" stroke="#94a3b8" stroke-width="2"/>

  <rect x="260" y="288" width="120" height="36" rx="8" fill="#0f766e" stroke="#14b8a6"/>
  <text x="320" y="311" text-anchor="middle" fill="#ecfeff" font-family="Arial, Helvetica, sans-serif" font-size="13" font-weight="600">Rules</text>

  <rect x="420" y="288" width="120" height="36" rx="8" fill="#6d28d9" stroke="#a78bfa"/>
  <text x="480" y="311" text-anchor="middle" fill="#f5f3ff" font-family="Arial, Helvetica, sans-serif" font-size="13" font-weight="600">ONNX</text>

  <rect x="580" y="288" width="120" height="36" rx="8" fill="#b45309" stroke="#fbbf24"/>
  <text x="640" y="311" text-anchor="middle" fill="#fffbeb" font-family="Arial, Helvetica, sans-serif" font-size="13" font-weight="600">Judge</text>

  <line x1="480" y1="324" x2="480" y2="344" stroke="#94a3b8" stroke-width="2"/>
  <polygon points="475,344 485,344 480,352" fill="#94a3b8"/>

  <rect x="395" y="352" width="170" height="44" rx="10" fill="#166534" stroke="#4ade80"/>
  <text x="480" y="380" text-anchor="middle" fill="#ecfdf5" font-family="Arial, Helvetica, sans-serif" font-size="16" font-weight="700">Your LLM</text>

  <text x="480" y="404" text-anchor="middle" fill="#64748b" font-family="Arial, Helvetica, sans-serif" font-size="12">Self-hosted - Explainable - Audit-ready</text>
</svg>
